<svg width="109" height="31" viewBox="0 0 109 31" fill="none" xmlns="http://www.w3.org/2000/svg">
<g clip-path="url(#clip0_2_169)">
<rect x="78.8104" y="0.088623" width="29.1892" height="29.1892" rx="14.5946" transform="rotate(-0.173721 78.8104 0.088623)" fill="#FFE75C"/>
<path d="M101.305 29.6926C101.41 30.114 101.418 30.5541 101.328 30.979C101.238 31.4042 101.052 31.8031 100.786 32.146C100.519 32.4886 100.177 32.7664 99.7871 32.9577C99.397 33.149 98.9687 33.2491 98.5341 33.2504L92.5977 33.2684L89.821 34.8336L89.8207 34.7506C88.5546 34.7544 87.827 34.3415 88.3734 29.6903C88.1203 28.3834 86.9424 23.2392 86.2873 19.4012C85.6954 15.8951 86.9992 14.6042 90.6047 12.5591C92.1268 7.98799 96.1127 8.24575 96.889 10.9833C97.6653 13.7208 100.233 25.3577 101.305 29.6926Z" fill="#66BCFF"/>
<path d="M101.305 29.6926C100.758 27.4525 99.7909 23.3041 98.8866 19.4253L94.2361 19.0865L90.653 21.6297L88.5858 24.4174L87.5316 25.8528C87.9106 27.6368 88.2261 29.0888 88.3526 29.7111C87.8062 34.3623 88.534 34.7753 89.8001 34.7714L93.4696 33.2035L101.978 32.5758C101.768 31.6424 101.536 30.6675 101.305 29.6926Z" fill="#EB459F"/>
<path d="M91.7849 27.3848C92.0419 25.8356 91.9022 24.5217 91.4723 24.4504C91.0426 24.379 90.4858 25.5771 90.2286 27.1266C89.9713 28.6758 90.1113 29.9895 90.541 30.0609C90.9706 30.1322 91.5276 28.9341 91.7849 27.3848Z" fill="black"/>
<path d="M89.0604 23.5442C89.2668 23.17 89.4942 22.7956 89.7215 22.4628C92.0568 19.0724 94.254 18.1524 96.3712 18.146L99.0073 18.138C99.0467 18.1389 99.0852 18.1492 99.1199 18.1678C99.1544 18.1864 99.1842 18.213 99.2065 18.2454C99.2288 18.2777 99.2432 18.3148 99.2485 18.3538C99.2538 18.3928 99.2498 18.4325 99.2368 18.4694L98.8866 19.4253C94.8391 19.4376 93.4065 19.3174 90.0546 22.8562L88.5858 24.4174L89.0604 23.5442Z" fill="#D11583"/>
<path d="M90.055 22.9807C88.665 23.234 87.5671 23.9638 86.9483 25.2526C86.7726 25.6102 86.5182 25.9231 86.2039 26.1682L82.4759 28.8986C82.0569 29.198 81.7656 29.6437 81.6594 30.1476C81.5534 30.6514 81.6403 31.1767 81.903 31.6195C82.0862 31.9303 82.3479 32.1873 82.6616 32.3649C82.9756 32.5424 83.3306 32.6344 83.6911 32.6312L85.2479 32.6265C88.4804 30.8108 89.9712 29.5816 90.7371 28.8736C91.5029 28.1655 92.3501 26.8968 92.2004 25.4443C92.0507 23.9917 91.6316 22.6853 90.055 22.9807Z" fill="white"/>
<path d="M91.1848 12.2462C90.6841 11.4174 90.0165 10.3193 89.7659 9.80118C89.5152 9.28302 88.9137 9.40939 89.7717 11.7316C87.6937 10.9491 87.2587 11.241 87.1558 11.5319C87.0529 11.8228 87.51 11.9667 88.3832 12.4623C89.2565 12.9578 90.1924 13.5569 90.1924 13.5569L91.1848 12.2462Z" fill="#66BCFF"/>
<path d="M93.3437 12.3018C93.6952 11.8648 93.8185 11.387 93.6104 11.2216C93.4024 11.0562 93.1741 11.1399 92.864 11.556C92.7302 11.7251 92.5852 11.8852 92.4296 12.0347C92.0777 12.3679 92.1615 12.6167 92.328 12.7615C92.4945 12.9063 92.9921 12.7387 93.3437 12.3018Z" fill="black"/>
<path d="M96.8684 11.0042C96.8684 11.0042 94.395 9.89085 93.3343 9.20909C92.2736 8.52733 91.7309 7.51189 92.2075 7.2406C92.6841 6.96932 93.5995 7.61 94.2455 8.43832C94.2203 6.96466 94.4684 6.65258 94.8627 6.63062C95.257 6.60867 95.3001 7.18971 95.3234 8.01991C95.3466 8.85012 95.4932 9.18178 96.1176 9.74033C96.4914 10.0748 96.7534 10.5159 96.8684 11.0042Z" fill="#3442D9"/>
<path d="M87.8189 17.923C87.2377 17.9248 86.738 17.4281 87.192 16.5549C87.646 15.6818 89.1377 14.8055 89.8632 14.4712C90.5886 14.1369 90.922 14.468 90.9435 14.717C90.965 14.966 90.8621 15.3399 90.3452 16.0057C89.8283 16.6715 88.8775 17.9198 87.8189 17.923Z" fill="white"/>
<path d="M88.2751 17.8592L87.9226 17.9225L87.4193 16.222L87.7089 15.9098L88.2751 17.8592Z" fill="#8CD9FF"/>
<path d="M89.5593 16.9421L89.2698 17.2336L88.682 15.139L88.9927 14.9305L89.5593 16.9421Z" fill="#8CD9FF"/>
<path d="M90.7174 15.4855L90.4485 15.8599L90.029 14.4082L90.3817 14.3449L90.7174 15.4855Z" fill="#8CD9FF"/>
<path d="M90.2566 14.1587C90.6414 14.341 91.037 14.4994 91.4414 14.6325" stroke="black" stroke-linecap="round" stroke-linejoin="round"/>
<path d="M99.5383 22.1634C99.1401 21.8495 98.6528 21.6694 98.1462 21.6487C97.0669 21.652 96.4681 22.7124 96.2637 23.7301C96.2307 23.8934 96.143 24.0402 96.0148 24.1464C95.8866 24.2527 95.726 24.3115 95.5597 24.3134L95.4144 24.3139C95.3207 24.2969 95.2314 24.2613 95.1519 24.2088C95.0723 24.1565 95.0042 24.0887 94.9516 24.0093C94.8991 23.93 94.8629 23.8408 94.8458 23.7473C94.8285 23.6535 94.8305 23.5574 94.8514 23.4645C95.2398 21.4915 96.5229 20.2214 98.1419 20.2165C98.4097 20.219 98.6688 20.3125 98.8769 20.4816C99.0847 20.6506 99.2291 20.8853 99.2863 21.1471L99.5383 22.1634Z" fill="white"/>
<path d="M101.305 29.6927C101.351 29.8781 101.359 30.0711 101.329 30.2597C101.298 30.4484 101.23 30.629 101.127 30.7904C101.025 30.9518 100.891 31.0906 100.733 31.1986C100.575 31.3068 100.397 31.3817 100.21 31.4188L99.6913 31.4619C98.5082 31.4655 97.2812 30.7635 96.3226 29.5417C96.2653 29.4655 96.2233 29.3789 96.1994 29.2866C96.1755 29.1941 96.17 29.098 96.1832 29.0035C96.1964 28.909 96.2281 28.818 96.2764 28.7359C96.3247 28.6535 96.3889 28.5817 96.4651 28.5242C96.54 28.464 96.6267 28.4197 96.7194 28.3941C96.8121 28.3687 96.9092 28.3624 97.0045 28.3756C97.0998 28.389 97.1912 28.4215 97.2736 28.4717C97.3557 28.5217 97.4269 28.5879 97.4824 28.6664C98.1492 29.5154 98.9605 30.0319 99.6869 30.0297C100.413 30.0275 100.848 29.611 101.158 29.0704C101.2 29.2986 101.263 29.506 101.305 29.6927Z" fill="#2331B5"/>
<path d="M99.896 23.7606C99.7495 23.7618 99.607 23.8085 99.4881 23.8944C99.3695 23.9803 99.2804 24.1012 99.2332 24.24L98.3686 26.5881C98.2931 26.8086 98.2955 27.0483 98.3754 27.2673C98.4556 27.4862 98.6083 27.6709 98.8081 27.7907C98.8986 27.8458 99.0004 27.8802 99.1057 27.8907C99.2111 27.9013 99.3176 27.8879 99.4173 27.8517C99.5168 27.8155 99.6069 27.7573 99.681 27.6816C99.7551 27.6058 99.8111 27.5143 99.8448 27.4139L100.401 25.897C100.253 25.2125 100.085 24.5072 99.896 23.7606Z" fill="#5865F2"/>
<path d="M98.8082 27.7906C98.6083 27.6708 98.4556 27.4861 98.3754 27.2672C98.2955 27.0482 98.2931 26.8085 98.3686 26.588L98.6157 25.9438C98.6571 25.8314 98.7224 25.7293 98.8068 25.6443C98.8915 25.5596 98.9934 25.4941 99.1056 25.4523C99.2179 25.4106 99.3379 25.3936 99.4574 25.4026C99.5768 25.4116 99.693 25.4463 99.7975 25.5043C99.9687 25.6036 100.1 25.7591 100.169 25.9447C100.237 26.1301 100.239 26.3335 100.174 26.5203L99.8449 27.4138C99.8111 27.5142 99.7551 27.6057 99.6811 27.6815C99.607 27.7572 99.5169 27.8154 99.4173 27.8516C99.3176 27.8878 99.2112 27.9012 99.1057 27.8906C99.0004 27.8801 98.8986 27.8459 98.8082 27.7906Z" fill="#FFE75C"/>
</g>
<g clip-path="url(#clip1_2_169)">
<rect x="63.2429" y="0.135986" width="29.1892" height="29.1892" rx="14.5946" transform="rotate(-0.173721 63.2429 0.135986)" fill="#3442D9"/>
<path d="M69.7533 11.5873C68.8937 8.76695 68.433 7.41915 69.9665 6.58423C71.4999 5.74931 76.1719 6.29558 78.3529 6.80788C80.5339 7.32019 80.8469 7.85892 79.4212 10.0012L69.7533 11.5873Z" fill="#FFF4B3"/>
<path d="M68.834 36.9757C68.4765 28.591 68.6629 21.6161 68.9215 17.8999C67.528 16.9908 66.8824 16.287 66.6114 15.8934C66.5551 15.8176 66.5262 15.7249 66.5298 15.6305C66.5333 15.5362 66.5687 15.4458 66.6305 15.3745C68.8224 12.6072 70.7039 10.1937 72.6724 9.06682C74.6409 7.93998 77.3384 7.64121 81.648 11.9041C81.6892 11.9587 81.7098 12.0261 81.7063 12.0944C81.7027 12.1629 81.6751 12.2278 81.6284 12.2777C81.2881 12.6175 80.9288 12.9374 80.5519 13.2358C81.4284 14.7899 82.7017 17.1523 82.7017 17.1523L83.6981 17.1493C84.3365 17.1474 84.9498 17.3992 85.4027 17.8495C85.8557 18.2996 86.1112 18.9111 86.1131 19.5498C86.1397 21.4801 85.6901 23.8062 84.8067 26.7979C88.8018 30.0238 87.847 36.8973 87.847 36.8973L68.834 36.9757Z" fill="#29CC7A"/>
<path d="M84.8067 26.7978C84.9299 26.3615 85.0532 25.9668 85.1558 25.5513L82.0268 27.3044C82.0268 27.3044 77.0558 23.9776 68.7261 21.9272C68.5925 25.7883 68.5876 31.0191 68.834 36.9755L87.8471 36.9179C87.8471 36.9179 88.8018 30.0237 84.8067 26.7978Z" fill="#8CD9FF"/>
<path d="M85.5977 27.5633C85.3549 27.2874 85.0903 27.0314 84.8067 26.7977C84.9299 26.3615 85.0532 25.9667 85.1557 25.5513L82.0268 27.3043C82.0268 27.3043 77.0558 23.9775 68.7261 21.9271C68.7068 22.4046 68.6876 22.9236 68.6892 23.4425C75.0695 26.0593 78.508 30.5738 78.9217 36.9449L83.6335 36.9306C84.4527 33.2749 85.1072 30.0764 85.5977 27.5633Z" fill="#BAE8FF"/>
<path d="M71.2302 19.491L71.3133 19.4908C71.3546 19.4492 71.3961 19.4283 71.4167 19.3659L73.2048 13.5278C73.2168 13.5033 73.2235 13.4765 73.2241 13.4491C73.2246 13.4219 73.2193 13.3948 73.2083 13.3699C73.1974 13.3448 73.1809 13.3224 73.1605 13.3044C73.1399 13.2864 73.1158 13.2732 73.0894 13.2656C73.0633 13.258 73.0356 13.2562 73.0087 13.2603C72.9817 13.2645 72.956 13.2745 72.9332 13.2898C72.9106 13.305 72.8916 13.325 72.8773 13.3485C72.8633 13.3718 72.8544 13.3979 72.8516 13.4251L71.1252 19.0762C70.3709 18.7572 69.6472 18.3702 68.963 17.9204L68.9215 17.9205C68.9218 18.0451 68.9015 18.1904 68.9019 18.315C69.6204 18.7742 70.3788 19.168 71.168 19.4912L71.2302 19.491Z" fill="black"/>
<path d="M78.9233 10.0856L71.4941 10.6478C79.8015 12.2002 80.1551 12.4274 78.9233 10.0856Z" fill="black"/>
<path d="M77.0826 15.4903C77.3691 15.3736 77.4191 14.8312 77.1941 14.2792C76.9691 13.7273 76.5545 13.3745 76.2678 13.4911C75.9811 13.608 75.9313 14.1502 76.1563 14.7022C76.3811 15.2543 76.7959 15.6072 77.0826 15.4903Z" fill="black"/>
<path d="M79.2258 16.6314C79.5938 15.9312 79.5467 15.182 79.1205 14.9581C78.6943 14.7339 78.0506 15.1201 77.6824 15.8201C77.3144 16.5203 77.3617 17.2695 77.7877 17.4936C78.2139 17.7175 78.8579 17.3316 79.2258 16.6314Z" stroke="white" stroke-miterlimit="10"/>
<path d="M82.2823 16.6264C82.6503 15.9264 82.6032 15.1772 82.177 14.9531C81.7508 14.7292 81.1071 15.1151 80.7391 15.8153C80.3711 16.5156 80.4182 17.2647 80.8444 17.4887C81.2706 17.7126 81.9144 17.3266 82.2823 16.6264Z" stroke="white" stroke-miterlimit="10"/>
<path d="M80.1792 15.3806C80.3703 15.3028 80.3499 14.8095 80.1335 14.2786C79.9173 13.7478 79.587 13.3806 79.3958 13.4586C79.2049 13.5364 79.2253 14.0297 79.4415 14.5607C79.6579 15.0914 79.9883 15.4586 80.1792 15.3806Z" fill="black"/>
<path d="M82.1732 20.807C80.5706 20.817 79.0138 20.2717 77.768 19.2636C76.4779 18.2089 76.9964 18.0828 77.8059 18.0596C78.6153 18.0363 82.4973 18.1699 83.6186 18.3325C84.74 18.4952 84.9543 20.7155 82.1732 20.807Z" fill="#912869"/>
<path d="M82.1732 20.807C80.5706 20.817 79.0138 20.2717 77.768 19.2636C76.4779 18.2089 76.9964 18.0828 77.8059 18.0596C78.6153 18.0363 82.4973 18.1699 83.6186 18.3325C84.74 18.4952 84.9543 20.7155 82.1732 20.807Z" fill="#611B46"/>
<path d="M82.0972 23.1321L82.0118 22.3644C82.5981 22.3159 83.169 22.1518 83.6917 21.8819" stroke="black" stroke-linecap="round" stroke-linejoin="round"/>
<path d="M82.9408 20.701C81.8167 19.625 80.299 18.8201 77.4974 19.0154C79.9119 21.2291 82.4223 20.8479 82.9408 20.701Z" fill="#EB459F"/>
<path d="M79.3561 15.8962L80.6222 15.8924" stroke="white" stroke-miterlimit="10"/>
<path d="M77.4472 16.151L72.0853 13.9878C71.9729 13.9446 71.8516 13.9294 71.7321 13.943C71.6124 13.9569 71.4979 13.9994 71.3981 14.0669C71.2985 14.1345 71.2165 14.2252 71.1596 14.3312C71.1024 14.4373 71.0718 14.5555 71.0703 14.6759C71.0683 14.8176 71.109 14.9566 71.1872 15.0749C71.2651 15.193 71.3771 15.285 71.5082 15.3388L71.8616 15.5037" stroke="white" stroke-miterlimit="10" stroke-linecap="round"/>
<path d="M76.3181 13.4353C76.7393 13.4449 77.1597 13.3875 77.563 13.2655" stroke="black" stroke-miterlimit="10" stroke-linecap="round"/>
<path d="M79.4317 13.4261C79.6972 13.4321 79.9604 13.3744 80.1991 13.2577" stroke="black" stroke-miterlimit="10" stroke-linecap="round"/>
<path d="M70.4569 10.8584C77.8667 10.7321 80.3757 9.89425 82.4906 9.11984C84.6054 8.34542 84.3961 7.74411 82.7772 7.81129C81.1584 7.87847 75.6228 10.0124 70.4569 10.8584Z" fill="#FFF4B3"/>
<path d="M70.4568 10.8586L72.9885 10.6434L79.0666 9.42105L77.5468 7.93116L70.3027 7.95312L70.4568 10.8586Z" fill="#FFF4B3"/>
<path d="M82.7473 18.4805L81.2941 18.4019C81.4628 19.2731 81.8793 19.7285 82.2317 19.5822C82.5841 19.4358 82.7063 18.6674 82.7473 18.4805Z" fill="white"/>
<path d="M78.2633 18.3074C78.4531 19.3031 78.8283 19.8209 79.1807 19.6538C79.5331 19.4867 79.6136 18.6561 79.6748 18.3238L78.2633 18.3074Z" fill="white"/>
<path d="M79.9147 8.44271C76.7181 9.30952 73.4775 10.0053 70.2068 10.5271" stroke="#FFC619" stroke-width="2" stroke-miterlimit="10" stroke-linecap="round"/>
</g>
<g clip-path="url(#clip2_2_169)">
<rect x="41.8406" y="1.17358" width="29.1892" height="29.1892" rx="14.5946" transform="rotate(-0.173721 41.8406 1.17358)" fill="#7196FF"/>
<path d="M52.8166 26.0908L52.1773 26.7285L56.8476 31.3314L57.4869 30.6935L52.8166 26.0908Z" fill="#2E3338"/>
<path d="M55.7278 26.0889L55.0885 26.7266L59.7587 31.3293L60.3981 30.6916L55.7278 26.0889Z" fill="#2E3338"/>
<path d="M60.971 25.274C62.1731 24.0691 62.9145 22.4868 63.0677 20.799C63.221 19.111 62.7763 17.423 61.8105 16.0249L58.7807 11.6356L55.2122 11.6464L55.2292 17.2568C55.2307 17.7442 55.0368 18.2122 54.6904 18.5579C54.3438 18.9035 53.873 19.0985 53.3814 19.1L47.6443 19.1174L47.6481 20.3881C47.6538 22.2564 48.4064 24.046 49.7409 25.3649C51.0754 26.6838 52.883 27.4242 54.7672 27.4236L55.812 27.4204C57.7479 27.3984 59.5989 26.6284 60.971 25.274Z" fill="#FFD836"/>
<path d="M58.7744 9.58317C59.7208 9.5803 60.6296 9.95034 61.3008 10.6119C61.972 11.2734 62.3507 12.1722 62.3536 13.1106L62.3564 14.0294L55.2193 14.0511L55.2165 13.1127C55.2189 12.1777 55.5945 11.2816 56.2612 10.6202C56.9278 9.95886 57.8314 9.58602 58.7744 9.58317Z" fill="#FFD836"/>
<path d="M63.3973 12.7164C63.5696 12.8843 63.7058 13.085 63.7979 13.3064C63.8901 13.5279 63.9363 13.7655 63.9335 14.005L60.5227 14.0153C60.396 14.0132 60.2725 13.9744 60.1678 13.9037C60.0629 13.8329 59.9812 13.7334 59.9327 13.6172C59.8842 13.5011 59.8709 13.3734 59.8946 13.2499C59.9183 13.1264 59.9778 13.0124 60.0659 12.922L60.754 12.2357L60.751 11.2583C60.7505 11.132 60.7993 11.0104 60.8872 10.919C60.9752 10.8276 61.0954 10.7736 61.2226 10.7681C61.3526 10.7747 61.4771 10.8223 61.5779 10.9039L63.3973 12.7164Z" fill="#FF9A15"/>
<path d="M58.7744 9.58306L57.7294 9.58623C56.4433 9.58853 55.2085 9.08628 54.2947 8.18913L53.7803 7.62378L53.7813 7.97566C53.7848 9.11627 54.2451 10.2088 55.061 11.0128C55.8768 11.8169 56.9814 12.2667 58.1318 12.2632L58.7627 12.2613L58.7744 9.58306Z" fill="#FFD836"/>
<path d="M53.7123 11.2014L56.571 11.1927L56.5796 14.0273L53.7123 11.2014Z" fill="#FFD836"/>
<path d="M49.3084 21.8492C49.845 22.9768 50.799 23.856 51.9724 24.3042C53.1458 24.7524 54.4482 24.7352 55.6091 24.256C56.7699 23.7769 57.7002 22.8728 58.2063 21.7314C58.7124 20.59 58.7556 19.2992 58.3269 18.1272L49.3084 21.8492Z" fill="#FF9A15"/>
<path d="M44.4801 15.9993L46.715 18.2992C47.0083 18.5846 47.2418 18.9248 47.402 19.3001C47.5622 19.6754 47.6459 20.0784 47.6482 20.4858L49.2452 20.481L49.2418 19.3669C49.2381 18.7441 49.0262 18.1403 48.6395 17.6498C48.2527 17.1593 47.7128 16.8098 47.1043 16.656L44.4801 15.9993Z" fill="#FFD836"/>
<path d="M48.6911 19.818L48.5142 19.9944C48.4416 20.0639 48.35 20.1106 48.2508 20.1286C48.1515 20.1467 48.0491 20.1354 47.9565 20.096C47.8636 20.0566 47.7847 19.9909 47.7295 19.9073C47.6742 19.8236 47.645 19.7257 47.6456 19.6256L47.63 14.4844L48.678 15.5173C49.2481 16.0895 49.5689 16.8606 49.5714 17.6649C49.5738 18.4692 49.2577 19.2424 48.6911 19.818Z" fill="#FFD836"/>
<path d="M58.9993 12.2606C59.2498 12.2599 59.4522 12.058 59.4514 11.8097C59.4507 11.5613 59.2471 11.3607 58.9966 11.3614C58.7461 11.3622 58.5437 11.5641 58.5445 11.8124C58.5452 12.0607 58.7488 12.2614 58.9993 12.2606Z" fill="#202225"/>
</g>
<g clip-path="url(#clip3_2_169)">
<rect x="20.9232" y="1.72363" width="29.1892" height="29.1892" rx="14.5946" transform="rotate(-0.173721 20.9232 1.72363)" fill="#FF78B9"/>
<path d="M44.7227 35.9594C45.7083 33.8765 43.0382 30.5465 38.7587 28.5212C34.4793 26.4958 30.211 26.5424 29.2254 28.6252C28.2397 30.7078 30.9098 34.0381 35.1894 36.0634C39.4687 38.0885 43.737 38.042 44.7227 35.9594Z" fill="black"/>
<path d="M45.2418 24.4416C43.9732 23.6567 43.911 23.6776 43.2015 22.4136C42.4919 21.1496 41.5975 20.5296 40.5592 20.3875L41.8744 29.7033C44.5751 30.4839 46.2315 29.1089 46.601 27.7586C46.9706 26.4083 46.5311 25.2264 45.2418 24.4416Z" fill="#3442D9"/>
<path d="M43.9793 25.6702C43.6218 24.1561 42.6824 22.3946 41.5783 21.0695C41.1826 20.5908 40.9013 20.0281 40.7557 19.4243C40.61 18.8205 40.6037 18.1915 40.7374 17.5849L41.1878 15.5079C41.5045 14.0662 41.3287 12.5601 40.6889 11.2301C40.0489 9.90005 38.9816 8.82287 37.6576 8.17063C36.8978 7.79942 36.0715 7.58319 35.2271 7.53454C33.6383 7.42299 32.0685 7.93495 30.8509 8.9617C29.6333 9.98848 28.8638 11.4493 28.7054 13.0341C28.6718 13.3026 28.6587 13.5733 28.6664 13.8438L28.6691 14.7363L28.7219 18.4724C28.772 20.1508 28.4213 21.8168 27.6988 23.3326C27.3988 23.934 27.171 24.5688 27.0195 25.2235L37.2023 35.9862C42.0361 35.162 45.0524 30.4826 43.9793 25.6702Z" fill="#3442D9"/>
<path d="M37.2231 35.986C42.0362 35.1619 45.0525 30.4824 43.9793 25.6701C43.6428 24.2389 42.7868 22.581 41.7658 21.2971" stroke="black" stroke-miterlimit="10" stroke-linecap="round"/>
<path d="M40.7422 25.9912C41.6922 24.4108 42.0665 24.6173 43.7699 25.0687C45.1409 25.4175 46.7269 28.2148 44.6348 29.6326C42.5426 31.0504 38.2642 30.2124 40.7422 25.9912Z" fill="#3442D9"/>
<path d="M35.9962 21.3535C36.1871 21.2066 36.217 20.9257 36.0632 20.7256C35.9094 20.5258 35.6301 20.4828 35.4394 20.6295C35.2487 20.7764 35.2186 21.0574 35.3724 21.2572C35.5262 21.4573 35.8055 21.5002 35.9962 21.3535Z" fill="black"/>
<path d="M38.6112 21.5077C38.8019 21.361 38.832 21.0798 38.6782 20.88C38.5244 20.6802 38.2451 20.637 38.0541 20.7839C37.8634 20.9306 37.8333 21.2118 37.9871 21.4116C38.1409 21.6114 38.4202 21.6546 38.6112 21.5077Z" fill="black"/>
<path d="M38.3406 21.1831C40.5671 23.003 39.6577 24.3134 41.451 27.0064" stroke="white" stroke-miterlimit="10" stroke-linecap="round"/>
<path d="M35.8414 25.2796C37.2085 24.3206 37.6228 24.0495 38.1418 24.0687L39.4913 24.1891L39.1551 29.67L35.7299 29.5766L35.8414 25.2796Z" fill="#FFC619"/>
<path d="M42.4794 23.8689C42.5051 23.7964 42.5134 23.7187 42.504 23.6424C42.4946 23.566 42.4676 23.4928 42.4253 23.4286C42.3828 23.3644 42.3262 23.3108 42.2596 23.2722C42.1929 23.2336 42.1183 23.211 42.0415 23.206L39.7572 22.8808C39.5915 22.8637 39.4248 22.904 39.2853 22.9952C39.1457 23.0863 39.0417 23.2226 38.9907 23.3813L37.7183 28.1592C37.6928 28.232 37.6843 28.3094 37.6937 28.3858C37.703 28.4621 37.73 28.5353 37.7724 28.5995C37.8149 28.6638 37.8715 28.7173 37.9383 28.756C38.0048 28.7946 38.0794 28.8172 38.1562 28.8221L40.4404 29.1473C40.6063 29.1645 40.7729 29.1241 40.9125 29.033C41.0519 28.9418 41.1559 28.8056 41.2069 28.6468L42.4794 23.8689Z" fill="black"/>
<path d="M42.3741 23.3917L42.6241 23.6816L41.9393 23.7459L42.3741 23.3917Z" fill="black"/>
<path d="M43.5046 26.5432C43.2125 26.0667 42.9409 25.4656 42.1518 25.3434L42.051 26.3401L43.5046 26.5432Z" fill="#FFC619"/>
<path d="M42.7085 24.1379C42.7301 24.0654 42.7354 23.989 42.7242 23.9141C42.713 23.8392 42.6856 23.7677 42.6439 23.7045C42.6022 23.6413 42.5472 23.5881 42.4827 23.5485C42.4183 23.5088 42.3457 23.4837 42.2706 23.475L39.9656 23.1499C39.8005 23.1365 39.6354 23.1785 39.4968 23.269C39.3581 23.3597 39.2532 23.4937 39.1991 23.6504L37.9267 28.4283C37.9051 28.5008 37.8997 28.5772 37.9109 28.6521C37.9222 28.727 37.9496 28.7986 37.9913 28.8617C38.033 28.9249 38.088 28.9783 38.1524 29.0178C38.2171 29.0574 38.2894 29.0825 38.3646 29.0912L40.6695 29.3956C40.8311 29.4217 40.9966 29.3869 41.1342 29.2985C41.2717 29.2098 41.372 29.0738 41.4153 28.9159L42.7085 24.1379Z" fill="white"/>
<path d="M42.0085 26.029L42.9429 26.1714C43.1323 26.1918 43.3059 26.2857 43.4267 26.4328C43.5476 26.58 43.6057 26.7687 43.5888 26.9582C43.5843 27.0568 43.5593 27.1534 43.5153 27.2418C43.4712 27.3299 43.4092 27.4082 43.3332 27.4709C43.257 27.5338 43.1687 27.5799 43.0735 27.6064C42.9785 27.633 42.8789 27.6393 42.7813 27.6249L42.096 27.5232C41.8832 27.4933 41.6861 27.3939 41.5353 27.2405C41.3848 27.087 41.2891 26.8882 41.2632 26.6747C41.2577 26.5796 41.2742 26.4845 41.3113 26.3968C41.3484 26.3091 41.4052 26.2311 41.4771 26.1686C41.5491 26.1063 41.6345 26.0612 41.7266 26.0371C41.8187 26.0129 41.9152 26.0102 42.0085 26.029Z" fill="#FFC619"/>
<path d="M41.7014 27.4206L42.3451 27.5224C42.4529 27.5358 42.5564 27.5722 42.6485 27.6294C42.7406 27.6867 42.8191 27.7634 42.8786 27.854C42.9382 27.9447 42.9773 28.0473 42.9932 28.1546C43.0091 28.2619 43.0013 28.3713 42.9707 28.4754C42.927 28.6428 42.8216 28.7876 42.6755 28.8804C42.5295 28.9732 42.3538 29.0074 42.1835 28.9759L41.7889 28.9148C41.5736 28.8858 41.3736 28.7872 41.2195 28.6341C41.0655 28.4809 40.9657 28.2815 40.9353 28.0664C40.929 27.9691 40.9457 27.8719 40.9839 27.7821C41.0222 27.6925 41.0809 27.613 41.1554 27.5501C41.23 27.4874 41.3181 27.4429 41.413 27.4204C41.5078 27.3979 41.6066 27.3981 41.7014 27.4206Z" fill="#FFC619"/>
<path d="M39.6951 29.7928L37.4525 29.4882L37.5535 28.5746L39.7962 28.8999L39.6951 29.7928Z" fill="#FFC619"/>
<path d="M40.2237 26.1589L38.8116 25.9556C38.7444 25.9467 38.6812 25.9185 38.6294 25.8746C38.5777 25.8306 38.5398 25.7726 38.5203 25.7074L38.3946 25.3342L38.2885 24.5665L37.5287 27.2672L39.8129 27.5924C40.0256 27.6202 40.2413 27.5755 40.4255 27.4658C40.6097 27.3561 40.7516 27.1877 40.8282 26.9874C40.8526 26.8924 40.8556 26.7932 40.8373 26.697C40.8187 26.6007 40.7792 26.5097 40.7215 26.4306C40.6637 26.3513 40.589 26.2859 40.5031 26.239C40.4171 26.192 40.3217 26.1647 40.2237 26.1589Z" fill="#FFC619"/>
<path d="M39.7713 27.5716L37.5287 27.2671L37.637 28.7613L39.3606 29.0051C39.5709 29.0358 39.7852 28.992 39.9667 28.8816C40.1482 28.7713 40.2855 28.6009 40.3551 28.4001C40.3832 28.3067 40.3898 28.208 40.3743 28.1116C40.3587 28.0151 40.3212 27.9237 40.2651 27.8437C40.2089 27.764 40.1352 27.698 40.0495 27.6507C39.9641 27.6036 39.8689 27.5765 39.7713 27.5716Z" fill="#FFC619"/>
<path d="M55.6988 36.6772C55.7542 34.4353 53.9058 34.088 52.6373 33.3031C51.3687 32.5182 49.8692 30.8622 48.3091 29.7461C46.7489 28.6299 45.3998 28.6548 42.7662 29.4723L45.7936 35.3165C47.4983 36.1832 47.8748 37.1368 48.792 38.421C49.7092 39.7051 50.9354 40.1996 52.1593 39.9675C52.806 41.0242 52.9313 41.2729 53.8643 40.9379C54.7974 40.603 56.3312 39.8926 56.7426 38.6667C57.1541 37.4408 56.5515 37.2351 55.6988 36.6772Z" fill="#66BCFF"/>
<path d="M45.6586 31.8712C45.3823 32.7631 45.2043 33.6823 45.1272 34.6127" stroke="black" stroke-width="2" stroke-miterlimit="10" stroke-linecap="round"/>
<path d="M46.916 42.6612C45.0323 44.3689 43.4326 43.8964 42.6851 43.8156C41.9376 43.7349 42.019 43.1949 41.9553 42.7385C41.8917 42.282 41.8481 41.5972 41.8481 41.5972C39.9588 41.4784 39.7266 40.1921 39.6816 39.0507C39.6367 37.9092 39.3456 37.744 39.1978 36.9349C36.9191 36.5327 34.7639 35.6114 32.8987 34.2419C31.0334 32.8726 29.5089 31.092 28.4426 29.0384L30.4101 27.6002L34.8192 30.4513C37.7841 29.3422 39.4222 28.7768 41.0201 28.6682C42.6181 28.5595 44.1974 29.1567 44.723 31.3761C45.2487 33.5955 45.313 34.2803 45.7936 35.3374C45.919 35.6069 46.1277 35.9798 46.3365 36.3736C46.9212 37.555 47.5282 39.2137 46.3506 41.0231C46.4965 41.5829 46.6856 42.1307 46.916 42.6612Z" fill="#8CD9FF"/>
<path d="M31.6726 33.2214C31.6059 31.7479 32.1632 30.7083 33.1798 30.5392L30.6005 28.7619L28.7349 29.5771C29.2163 30.9041 30.4454 32.3533 31.6726 33.2214Z" fill="black"/>
<path d="M35.882 24.9889C35.2785 24.4719 34.822 24.5148 34.0964 24.8283C33.3263 24.1249 32.3297 24.0241 31.2929 24.3802C30.2562 24.7362 28.6593 25.2184 27.726 25.4703C27.674 25.49 27.6173 25.4941 27.5629 25.4824C27.5085 25.4706 27.4586 25.4435 27.4191 25.4044C27.3797 25.3651 27.3524 25.3154 27.3404 25.261C27.3282 25.2067 27.3321 25.15 27.3513 25.0978L28.0287 22.605C25.8128 24.2722 25.0971 27.8238 25.8086 29.7521C26.5202 31.6803 29.5921 31.6502 30.5661 31.1076C31.54 30.565 31.8716 30.3979 32.9931 30.6021C34.1146 30.8062 34.9868 30.9489 36.4571 29.8236L37.328 29.5303C37.6544 27.6405 37.3597 26.2714 35.882 24.9889Z" fill="#3442D9"/>
<path d="M35.8821 24.9889C35.2786 24.4718 34.8221 24.5147 34.0966 24.8282C33.3264 24.1248 32.3298 24.0241 31.293 24.3801C30.2563 24.7361 28.6595 25.2183 27.7262 25.4702" stroke="black" stroke-miterlimit="10" stroke-linecap="round"/>
<path d="M34.0964 24.8284C34.7179 25.3066 35.2359 25.9057 35.6197 26.5893C36.0035 27.2731 36.2449 28.0275 36.3295 28.8069" stroke="black" stroke-miterlimit="10" stroke-linecap="round"/>
<path d="M40.3839 24.1866C40.3932 24.158 40.3962 24.1276 40.3926 24.0976C40.389 24.0677 40.3789 24.0389 40.3629 24.0134C40.347 23.9877 40.3258 23.9657 40.3006 23.9492C40.2754 23.9327 40.247 23.9218 40.2171 23.9173L40.0095 23.9179C39.9518 23.9054 39.8914 23.916 39.8412 23.9471C39.7909 23.9782 39.7547 24.0275 39.7402 24.0848L39.5554 24.7703C39.546 24.8007 39.5436 24.8326 39.5485 24.864C39.5533 24.8953 39.5652 24.9249 39.5832 24.951C39.6013 24.9769 39.6252 24.9984 39.6529 25.0139C39.6805 25.0292 39.7115 25.038 39.7431 25.0396L39.9506 25.039C40.0052 25.0459 40.0604 25.0326 40.1062 25.002C40.1518 24.9713 40.1848 24.9253 40.1992 24.8722L40.3839 24.1866Z" fill="#29CC7A"/>
<path d="M37.0507 20.2112C37.2101 19.8859 37.4461 19.6042 37.7381 19.39C38.0304 19.1758 38.3701 19.0357 38.7282 18.9815C38.7698 18.9814 38.7904 18.9398 38.7696 18.9191C38.4967 17.9236 38.6196 17.3628 38.9702 16.6352C38.9737 16.63 38.976 16.624 38.9768 16.6177C38.9776 16.6114 38.977 16.605 38.9751 16.599C38.973 16.593 38.9697 16.5875 38.9651 16.583C38.9607 16.5785 38.9553 16.5751 38.9493 16.573C37.7854 16.0784 37.347 15.2495 37.2206 14.6271C37.1997 14.5857 37.1373 14.5651 37.1167 14.6067C36.6009 15.6461 35.8953 15.6898 35.2931 15.6086C35.2516 15.6087 35.231 15.6503 35.2518 15.6709C35.8573 16.8315 35.4239 17.6631 34.8237 18.2461C34.8206 18.2542 34.819 18.263 34.8195 18.2717C34.8199 18.2805 34.8222 18.289 34.8262 18.2969C34.8301 18.3047 34.8356 18.3116 34.8424 18.3172C34.8491 18.3227 34.857 18.3267 34.8655 18.329C36.0285 18.533 36.6535 19.2991 36.9468 20.1908C36.9677 20.2322 37.03 20.2528 37.0507 20.2112Z" fill="#FFC619"/>
<path d="M39.7714 27.5719L38.5878 27.4094" stroke="black" stroke-miterlimit="10" stroke-linecap="round"/>
<path d="M41.9299 27.5029L42.5945 27.6047" stroke="black" stroke-miterlimit="10" stroke-linecap="round"/>
<path d="M37.1789 14.5858C37.6943 13.4218 37.6503 12.6124 37.5036 12.1562" stroke="black" stroke-miterlimit="10" stroke-linecap="round"/>
<path d="M38.8456 16.6149C39.1695 16.6635 39.5003 16.6419 39.8151 16.5514C40.1302 16.4609 40.4219 16.3037 40.6706 16.0904" stroke="black" stroke-miterlimit="10" stroke-linecap="round"/>
<path d="M37.0507 20.2112C37.0528 20.3657 37.0323 20.5197 36.9898 20.6681" stroke="black" stroke-miterlimit="10" stroke-linecap="round"/>
<path d="M34.9276 18.2666C34.1613 18.8086 32.9986 18.7291 32.1884 18.4825" stroke="black" stroke-miterlimit="10" stroke-linecap="round"/>
<path d="M35.2931 15.6086C35.0007 15.0076 34.4589 14.3242 33.9601 14.0974" stroke="black" stroke-miterlimit="10" stroke-linecap="round"/>
<path d="M38.7697 18.9192C39.0378 19.0613 39.3246 19.1652 39.6216 19.228" stroke="black" stroke-miterlimit="10" stroke-linecap="round"/>
<path d="M36.5419 16.705C36.8989 18.0738 37.3553 17.9894 37.5616 17.5737C37.7679 17.1579 37.9117 16.6385 38.2439 16.679C38.5761 16.7196 38.4949 17.301 38.103 18.1325C37.7111 18.9639 37.0682 19.1527 36.4641 18.428C35.86 17.7034 35.8371 16.9977 35.8148 16.4996C35.7925 16.0015 36.3111 15.8754 36.5419 16.705Z" fill="#C40655"/>
<path d="M35.7247 21.025C35.9825 23.8887 34.5337 25.263 34.0857 28.1081" stroke="white" stroke-miterlimit="10" stroke-linecap="round"/>
<path d="M39.0318 36.9562C38.6545 35.7327 38.4817 33.4914 39.4928 31.5165" stroke="black" stroke-width="2" stroke-miterlimit="10" stroke-linecap="round"/>
<path d="M28.5349 25.2395L27.0004 25.7423" stroke="black" stroke-miterlimit="10" stroke-linecap="round"/>
<path d="M43.7905 25.0066L44.8292 25.294" stroke="black" stroke-miterlimit="10" stroke-linecap="round"/>
</g>
<g clip-path="url(#clip4_2_169)">
<rect x="0.00439453" y="1.78711" width="29.1892" height="29.1892" rx="14.5946" transform="rotate(-0.173721 0.00439453 1.78711)" fill="url(#paint0_linear_2_169)"/>
<path d="M26.5187 13.3725C28.0294 7.55489 28.7608 6.52169 32.2967 14.0099L26.5187 13.3725Z" fill="#D4E1FF"/>
<path d="M12.0857 25.8355L11.947 25.9556C14.0568 27.9332 17.2689 33.0214 22.1305 32.7495C22.1305 32.7495 26.0825 39.9191 30.3085 39.1131C34.5344 38.3064 37.6519 32.3448 37.6519 32.3448C38.7907 30.2871 39.5947 28.0612 40.0338 25.7507C39.9727 25.2157 39.7729 24.7993 39.3953 24.5425C36.3718 22.5483 14.2842 24.2224 12.0857 25.8355Z" fill="#1C1B29"/>
<path d="M18.4528 11.0954L22.8825 12.2721C24.1978 11.705 25.6165 11.4173 27.0488 11.4269C33.7972 11.4065 37.4066 16.8711 37.427 23.5961C37.4473 30.322 33.8712 35.8084 27.1228 35.8289C20.3737 35.8493 16.7844 30.3846 16.764 23.6588C16.757 22.6684 16.8335 21.6792 16.9929 20.7017C17.4423 18.1209 17.3129 15.4711 16.6118 12.946C16.5436 12.6907 16.5435 12.422 16.6117 12.1667C16.6798 11.9115 16.8137 11.6785 17.0001 11.4912C17.1864 11.3039 17.4187 11.1688 17.6736 11.0993C17.9285 11.0298 18.1972 11.0285 18.4528 11.0954Z" fill="#B3CAFF"/>
<path d="M37.1978 26.514C33.9269 27.9719 30.5481 26.4538 27.2872 24.5994C23.7276 22.5667 21.429 17.3954 20.4516 15.7518C19.4743 14.1075 18.0832 13.7951 17.1237 11.3977C16.897 11.5781 16.728 11.8206 16.6372 12.0957C16.5463 12.3707 16.5378 12.6663 16.6125 12.9461C17.3131 15.4714 17.443 18.121 16.9928 20.7027C16.8335 21.6799 16.7569 22.6688 16.7639 23.6589C16.7843 30.3848 20.3936 35.8494 27.1227 35.829C32.8594 35.8116 36.3011 31.8331 37.1978 26.5132L37.1978 26.514Z" fill="#8DAEF7"/>
<path d="M36.5964 24.5108C36.6122 29.7485 33.5089 34.004 29.6775 34.0156C25.8469 34.0272 22.737 29.7905 22.7212 24.5529C22.6949 15.9033 28.0955 22.9696 31.9269 22.958C35.7575 22.9464 36.6727 17.0912 36.5964 24.5108Z" fill="#FCFDFF"/>
<path d="M29.779 29.5819C30.151 29.5494 30.4081 29.028 30.3557 28.4166C30.3024 27.8052 29.9578 27.3362 29.5867 27.3678C29.2155 27.4011 28.9575 27.9226 29.0108 28.5332C29.0641 29.1445 29.4079 29.6144 29.779 29.5819ZM34.3362 28.5548C34.4452 27.951 34.2363 27.4076 33.8688 27.342C33.5022 27.2756 33.1162 27.7115 33.0071 28.3153C32.8989 28.9183 33.1079 29.4617 33.4745 29.5281C33.8411 29.5945 34.2271 29.1586 34.3362 28.5548Z" fill="#1C1B29"/>
<path d="M49.855 89.5834C47.0378 90.1874 38.5776 82.1781 38.5776 82.1781C40.9221 89.4715 41.3257 91.6528 41.7283 93.536C42.131 95.4199 41.8935 95.7975 41.7392 97.1271C41.5841 98.4567 41.584 98.4173 42.383 100.081C43.182 101.745 43.7022 102.914 43.8631 103.767C43.9241 104.263 43.9055 104.765 43.8081 105.255L8.33706 105.362C8.33706 105.362 8.15546 104.57 8.90333 102.365C9.65121 100.161 11.3725 98.3305 12.3206 96.9383C13.2694 95.5468 13.2103 95.686 12.9506 95.1114C11.7512 92.2977 13.6784 92.9074 14.4796 88.679C15.28 84.4506 15.4777 64.2931 17.2583 56.0551C19.0398 47.8162 21.7933 45.8632 21.9712 39.058C18.6068 35.9343 10.2651 27.8049 11.947 25.9548C13.8577 27.7345 19.5769 28.5907 24.2415 28.5372C24.6507 28.53 25.0517 28.6522 25.3874 28.8862C25.7231 29.1202 25.9765 29.4541 26.1114 29.8405C26.9126 32.2384 28.9319 36.9741 32.0864 36.349C35.241 35.7247 37.5655 30.083 38.215 28.0376C38.3519 27.5911 38.6377 27.205 39.0249 26.9438C39.4473 26.6281 39.7923 26.2204 40.0338 25.7515C40.4828 29.6579 34.0229 40.0332 34.0229 40.0332C34.0229 40.0332 35.6735 54.0747 38.9034 58.687C42.1325 63.3002 51.1646 63.2728 51.3957 67.6765C51.6276 72.0794 52.652 88.9795 49.855 89.5834Z" fill="#BD4070"/>
<path d="M22.4008 30.2085C20.058 30.0765 16.9012 29.6891 11.8319 27.1853C12.6541 30.1384 19.1249 36.3882 21.9713 39.0579C21.9348 41.1687 21.5591 43.2598 20.8586 45.2512C23.4298 48.874 26.5196 46.5037 27.1065 56.6993C27.3576 61.0435 30.5709 66.8066 33.9246 73.0458C37.2784 79.2851 37.7 67.7967 37.5438 62.1432C37.4549 59.0682 36.8287 55.2612 36.1619 51.6326C34.7366 46.1413 34.023 40.0331 34.023 40.0331C34.023 40.0331 38.5468 32.7583 39.763 28.1123C39.4534 28.3061 39.2116 28.5913 39.0711 28.9276C37.8481 31.7074 36.4782 34.4203 34.967 37.0546C33.4065 39.6982 30.4927 41.0161 27.122 35.8288C23.7522 30.6407 24.9221 30.3599 22.4008 30.2085Z" fill="#A12C66"/>
<path d="M23.8403 20.4835C27.3393 22.1587 28.5568 24.2982 31.3554 24.2101C34.154 24.1221 35.2411 22.7696 36.3671 20.9614C35.9076 19.9703 34.6663 22.9497 31.9269 22.9581C29.1876 22.9664 25.6038 19.3073 23.8403 20.4835Z" fill="#8DAEF7"/>
</g>
<defs>
<linearGradient id="paint0_linear_2_169" x1="14.599" y1="31.1087" x2="14.599" y2="10.2004" gradientUnits="userSpaceOnUse">
<stop stop-color="#7196FF"/>
<stop offset="1" stop-color="#2A5EE8"/>
</linearGradient>
<clipPath id="clip0_2_169">
<rect x="78.8104" y="0.088623" width="29.1892" height="29.1892" rx="14.5946" transform="rotate(-0.173721 78.8104 0.088623)" fill="white"/>
</clipPath>
<clipPath id="clip1_2_169">
<rect x="63.2429" y="0.135986" width="29.1892" height="29.1892" rx="14.5946" transform="rotate(-0.173721 63.2429 0.135986)" fill="white"/>
</clipPath>
<clipPath id="clip2_2_169">
<rect x="41.8406" y="1.17358" width="29.1892" height="29.1892" rx="14.5946" transform="rotate(-0.173721 41.8406 1.17358)" fill="white"/>
</clipPath>
<clipPath id="clip3_2_169">
<rect x="20.9232" y="1.72363" width="29.1892" height="29.1892" rx="14.5946" transform="rotate(-0.173721 20.9232 1.72363)" fill="white"/>
</clipPath>
<clipPath id="clip4_2_169">
<rect x="0.00439453" y="1.78711" width="29.1892" height="29.1892" rx="14.5946" transform="rotate(-0.173721 0.00439453 1.78711)" fill="white"/>
</clipPath>
</defs>
</svg>
