<svg width="36" height="36" viewBox="0 0 36 36" fill="none" xmlns="http://www.w3.org/2000/svg">
<path d="M24.345 26.4437L18 22.7249L11.655 26.4437L13.335 19.4291L7.74 14.7187L15.12 14.1062L18 7.48535L20.88 14.0916L28.26 14.7041L22.665 19.4145L24.345 26.4437ZM18 3.11035C9.705 3.11035 3 9.67285 3 17.6937C3 21.5614 4.58035 25.2708 7.3934 28.0057C8.78628 29.3598 10.4399 30.434 12.2597 31.1669C14.0796 31.8998 16.0302 32.277 18 32.277C21.9782 32.277 25.7936 30.7406 28.6066 28.0057C31.4196 25.2708 33 21.5614 33 17.6937C33 15.7786 32.612 13.8822 31.8582 12.1129C31.1044 10.3436 29.9995 8.7359 28.6066 7.38171C27.2137 6.02752 25.5601 4.95332 23.7403 4.22044C21.9204 3.48756 19.9698 3.11035 18 3.11035Z" fill="#C43670"/>
</svg>
